<svg width="50" height="37" viewBox="0 0 50 37" fill="none" xmlns="http://www.w3.org/2000/svg">
<path d="M15.1173 9.84055V14.7605L7.88953 24.6011V0L15.1173 9.84055Z" fill="#A1A1B7"/>
<path d="M41.619 0V14.7605L34.3912 24.6011V9.84055L41.619 0Z" fill="#A1A1B7"/>
<path d="M39.2097 0L24.7541 19.6808L10.2988 0H21.1404L24.7541 4.92027L28.3682 0H39.2097Z" fill="#A1A1B7"/>
<path d="M2.0159 32.5179C1.6334 32.5179 1.2888 32.437 0.982107 32.2751C0.675414 32.1097 0.434195 31.881 0.258449 31.589C0.0861497 31.2934 0 30.9591 0 30.5861C0 30.2131 0.0861497 29.8806 0.258449 29.5886C0.434195 29.293 0.675414 29.0643 0.982107 28.9024C1.2888 28.737 1.6334 28.6543 2.0159 28.6543C2.3674 28.6543 2.68098 28.7177 2.95666 28.8443C3.23234 28.971 3.45977 29.154 3.63897 29.3933L2.86879 30.0953C2.6448 29.8067 2.38118 29.6624 2.07793 29.6624C1.82293 29.6624 1.61789 29.7469 1.46282 29.9158C1.30775 30.0812 1.23022 30.3046 1.23022 30.5861C1.23022 30.8676 1.30775 31.0928 1.46282 31.2617C1.61789 31.4271 1.82293 31.5098 2.07793 31.5098C2.38118 31.5098 2.6448 31.3655 2.86879 31.077L3.63897 31.779C3.45977 32.0182 3.23234 32.2012 2.95666 32.3279C2.68098 32.4546 2.3674 32.5179 2.0159 32.5179Z" fill="#A1A1B7"/>
<path d="M5.54188 31.5045H5.21106V32.4335H3.99118V28.7388H5.73313C6.06739 28.7388 6.35858 28.7951 6.60669 28.9077C6.8548 29.0203 7.04605 29.1821 7.18045 29.3933C7.31484 29.6044 7.38204 29.8507 7.38204 30.1322C7.38204 30.3961 7.32346 30.6266 7.20629 30.8236C7.08913 31.0207 6.92028 31.1773 6.69973 31.2934L7.45957 32.4335H6.15699L5.54188 31.5045ZM6.15182 30.1322C6.15182 29.995 6.11047 29.8894 6.02776 29.8155C5.94506 29.7381 5.821 29.6994 5.6556 29.6994H5.21106V30.565H5.6556C5.821 30.565 5.94506 30.5281 6.02776 30.4542C6.11047 30.3768 6.15182 30.2694 6.15182 30.1322Z" fill="#A1A1B7"/>
<path d="M10.851 31.494V32.4335H7.84268V28.7388H10.7838V29.6783H9.04189V30.1111H10.5719V31.0084H9.04189V31.494H10.851Z" fill="#A1A1B7"/>
<path d="M13.7863 31.7895H12.4113L12.1684 32.4335H10.9278L12.5095 28.7388H13.7087L15.2904 32.4335H14.0292L13.7863 31.7895ZM13.4503 30.8922L13.0988 29.9633L12.7473 30.8922H13.4503Z" fill="#A1A1B7"/>
<path d="M16.0891 29.7047H15.0294V28.7388H18.3686V29.7047H17.309V32.4335H16.0891V29.7047Z" fill="#A1A1B7"/>
<path d="M18.6854 28.7388H19.9053V32.4335H18.6854V28.7388Z" fill="#A1A1B7"/>
<path d="M24.359 28.7388L22.8289 32.4335H21.6297L20.0997 28.7388H21.4126L22.2759 30.8975L23.1598 28.7388H24.359Z" fill="#A1A1B7"/>
<path d="M27.4887 31.494V32.4335H24.4804V28.7388H27.4215V29.6783H25.6796V30.1111H27.2096V31.0084H25.6796V31.494H27.4887Z" fill="#A1A1B7"/>
<path d="M29.508 28.7388H31.2913C31.6945 28.7388 32.0494 28.8144 32.3561 28.9657C32.6663 29.1135 32.9058 29.3264 33.0746 29.6044C33.2469 29.8824 33.3331 30.2096 33.3331 30.5861C33.3331 30.9626 33.2469 31.2899 33.0746 31.5678C32.9058 31.8458 32.6663 32.0605 32.3561 32.2118C32.0494 32.3596 31.6945 32.4335 31.2913 32.4335H29.508V28.7388ZM31.2396 31.4623C31.5015 31.4623 31.71 31.3866 31.8651 31.2353C32.0236 31.0805 32.1028 30.8641 32.1028 30.5861C32.1028 30.3081 32.0236 30.0935 31.8651 29.9422C31.71 29.7874 31.5015 29.7099 31.2396 29.7099H30.7279V31.4623H31.2396Z" fill="#A1A1B7"/>
<path d="M36.7868 31.494V32.4335H33.7785V28.7388H36.7196V29.6783H34.9777V30.1111H36.5077V31.0084H34.9777V31.494H36.7868Z" fill="#A1A1B7"/>
<path d="M38.6055 32.5179C38.3057 32.5179 38.0128 32.4845 37.7268 32.4176C37.4442 32.3472 37.2116 32.254 37.029 32.1379L37.4218 31.23C37.5941 31.3321 37.7871 31.4148 38.0008 31.4781C38.2144 31.5379 38.4195 31.5678 38.6159 31.5678C38.7847 31.5678 38.9053 31.552 38.9777 31.5203C39.0501 31.4852 39.0863 31.4341 39.0863 31.3673C39.0863 31.2899 39.038 31.2318 38.9415 31.1931C38.8485 31.1544 38.6934 31.1122 38.4763 31.0664C38.1972 31.0066 37.9646 30.9433 37.7785 30.8764C37.5924 30.806 37.4305 30.6934 37.2926 30.5386C37.1548 30.3803 37.0859 30.1674 37.0859 29.9C37.0859 29.6677 37.1496 29.4566 37.2771 29.2666C37.4046 29.0766 37.5941 28.927 37.8457 28.8179C38.1007 28.7089 38.4091 28.6543 38.771 28.6543C39.0191 28.6543 39.262 28.6825 39.4998 28.7388C39.741 28.7916 39.9529 28.8707 40.1356 28.9763L39.7686 29.8788C39.4136 29.6959 39.0776 29.6044 38.7606 29.6044C38.447 29.6044 38.2902 29.6818 38.2902 29.8366C38.2902 29.9105 38.3368 29.9668 38.4298 30.0055C38.5228 30.0407 38.6762 30.0794 38.8898 30.1216C39.1655 30.1744 39.3981 30.236 39.5876 30.3064C39.7772 30.3732 39.9409 30.4841 40.0787 30.6389C40.22 30.7937 40.2906 31.0048 40.2906 31.2723C40.2906 31.5045 40.2269 31.7156 40.0994 31.9056C39.9719 32.0921 39.7806 32.2417 39.5256 32.3543C39.2741 32.4634 38.9674 32.5179 38.6055 32.5179Z" fill="#A1A1B7"/>
<path d="M40.6536 28.7388H41.8735V32.4335H40.6536V28.7388Z" fill="#A1A1B7"/>
<path d="M44.854 30.4858H45.9136V32.0482C45.7 32.1995 45.4519 32.3156 45.1693 32.3965C44.8867 32.4774 44.6093 32.5179 44.3371 32.5179C43.9511 32.5179 43.6048 32.437 43.2981 32.2751C42.9914 32.1097 42.7502 31.881 42.5745 31.589C42.4022 31.2934 42.316 30.9591 42.316 30.5861C42.316 30.2131 42.4022 29.8806 42.5745 29.5886C42.7502 29.293 42.9932 29.0643 43.3033 28.9024C43.6169 28.737 43.9701 28.6543 44.3629 28.6543C44.7179 28.6543 45.0349 28.7159 45.314 28.8391C45.5966 28.9587 45.8309 29.1346 46.017 29.3669L45.2365 30.0689C45.0091 29.7979 44.7386 29.6624 44.425 29.6624C44.1562 29.6624 43.9425 29.7451 43.784 29.9105C43.6255 30.0759 43.5462 30.3011 43.5462 30.5861C43.5462 30.8641 43.6238 31.0875 43.7788 31.2564C43.9374 31.4253 44.1476 31.5098 44.4095 31.5098C44.5645 31.5098 44.7127 31.4799 44.854 31.4201V30.4858Z" fill="#A1A1B7"/>
<path d="M50 28.7388V32.4335H48.9972L47.6223 30.755V32.4335H46.4334V28.7388H47.4362L48.8111 30.4172V28.7388H50Z" fill="#A1A1B7"/>
<path d="M9.97586 35.507V35.2428H8.6065V35.507H9.14595V36.9875H9.43398V35.507H9.97586Z" fill="#A1A1B7"/>
<path d="M11.1567 36.5937L11.3202 36.9875H11.6278L10.8809 35.2428H10.5855L9.83128 36.9875H10.1315L10.2951 36.5937H11.1567ZM11.0469 36.332H10.4025L10.7247 35.5569L11.0469 36.332Z" fill="#A1A1B7"/>
<path d="M12.9818 36.1301V36.6162C12.8597 36.6909 12.7157 36.7358 12.5888 36.7358C12.2397 36.7358 11.9639 36.4641 11.9639 36.1152C11.9639 35.7687 12.2373 35.497 12.5864 35.497C12.7645 35.497 12.9476 35.5718 13.0794 35.6964L13.243 35.4796C13.0745 35.33 12.8305 35.2353 12.5864 35.2353C12.0689 35.2353 11.671 35.6167 11.671 36.1152C11.671 36.6137 12.064 37 12.5693 37C12.8036 37 13.0599 36.9078 13.2332 36.7732V36.1301H12.9818Z" fill="#A1A1B7"/>
<path d="M13.9289 36.7208V35.2428H13.6409V36.9875H14.6685V36.7208H13.9289Z" fill="#A1A1B7"/>
<path d="M15.2328 36.9875V35.2428H14.9448V36.9875H15.2328Z" fill="#A1A1B7"/>
<path d="M17.163 36.9875V35.2428H16.8799V36.4965L15.9645 35.2428H15.6814V36.9875H15.9694V35.7363L16.8799 36.9875H17.163Z" fill="#A1A1B7"/>
<path d="M18.835 35.507V35.2428H17.6146V36.9875H18.8643V36.7233H17.9026V36.2423H18.7374V35.9781H17.9026V35.507H18.835Z" fill="#A1A1B7"/>
<path d="M21.0149 36.1301V36.6162C20.8929 36.6909 20.7489 36.7358 20.6219 36.7358C20.2729 36.7358 19.9971 36.4641 19.9971 36.1152C19.9971 35.7687 20.2704 35.497 20.6195 35.497C20.7977 35.497 20.9808 35.5718 21.1126 35.6964L21.2761 35.4796C21.1077 35.33 20.8636 35.2353 20.6195 35.2353C20.102 35.2353 19.7041 35.6167 19.7041 36.1152C19.7041 36.6137 20.0971 37 20.6024 37C20.8367 37 21.093 36.9078 21.2663 36.7732V36.1301H21.0149Z" fill="#A1A1B7"/>
<path d="M22.438 35.2353C21.9279 35.2353 21.5325 35.6142 21.5325 36.1152C21.5325 36.6137 21.9279 37 22.438 37C22.9482 37 23.3436 36.6137 23.3436 36.1152C23.3436 35.6167 22.9482 35.2353 22.438 35.2353ZM22.4405 35.4995C22.7749 35.4995 23.0483 35.7687 23.0483 36.1152C23.0483 36.4616 22.7749 36.7358 22.4405 36.7358C22.1061 36.7358 21.8254 36.4616 21.8254 36.1152C21.8254 35.7687 22.1036 35.4995 22.4405 35.4995Z" fill="#A1A1B7"/>
<path d="M24.8706 35.507V35.2428H23.6501V36.9875H24.8999V36.7233H23.9382V36.2423H24.773V35.9781H23.9382V35.507H24.8706Z" fill="#A1A1B7"/>
<path d="M25.8134 35.2304C25.4424 35.2304 25.191 35.4173 25.191 35.7164C25.191 36.337 26.1136 36.1202 26.1136 36.509C26.1136 36.6436 25.994 36.7208 25.7939 36.7208C25.6108 36.7208 25.3911 36.6311 25.2154 36.4666L25.0909 36.7208C25.2666 36.8853 25.5205 36.9975 25.789 36.9975C26.1649 36.9975 26.4334 36.8056 26.4334 36.494C26.4358 35.8659 25.5132 36.0703 25.5132 35.689C25.5132 35.5718 25.623 35.507 25.7914 35.507C25.9208 35.507 26.1063 35.5544 26.2918 35.669L26.4114 35.4098C26.2528 35.3026 26.0355 35.2304 25.8134 35.2304Z" fill="#A1A1B7"/>
<path d="M28.8814 36.9875V35.2428H28.5933V36.0005H27.6878V35.2428H27.3997V36.9875H27.6878V36.2647H28.5933V36.9875H28.8814Z" fill="#A1A1B7"/>
<path d="M30.551 35.507V35.2428H29.3305V36.9875H30.5803V36.7233H29.6186V36.2423H30.4534V35.9781H29.6186V35.507H30.551Z" fill="#A1A1B7"/>
<path d="M32.0162 36.9875H32.3433L31.96 36.4043C32.187 36.3146 32.314 36.1177 32.314 35.8385C32.314 35.4597 32.0626 35.2428 31.6256 35.2428H30.9324V36.9875H31.2204V36.4616H31.6256C31.6525 36.4616 31.6793 36.4616 31.7037 36.4591L32.0162 36.9875ZM31.2204 36.1974V35.507H31.6256C31.8892 35.507 32.0406 35.6167 32.0406 35.846C32.0406 36.0828 31.8892 36.1974 31.6256 36.1974H31.2204Z" fill="#A1A1B7"/>
<path d="M33.9168 35.507V35.2428H32.6964V36.9875H33.9461V36.7233H32.9844V36.2423H33.8192V35.9781H32.9844V35.507H33.9168Z" fill="#A1A1B7"/>
</svg>
