<svg width="20" height="20" viewBox="0 0 20 20" fill="none" xmlns="http://www.w3.org/2000/svg">
<path fill-rule="evenodd" clip-rule="evenodd" d="M6.01372 -0.000488281H2.97598C1.33113 -0.000488281 0.000244141 1.34196 0.000244141 2.99503V6.05914C0.000244141 7.71154 1.33142 9.05466 2.97598 9.05466H6.01372C7.65829 9.05466 8.98946 7.71154 8.98946 6.05914V2.99503C8.98946 1.34196 7.65857 -0.000488281 6.01372 -0.000488281ZM2.97602 1.3948H6.01376C6.88526 1.3948 7.59415 2.10983 7.59415 2.99496V6.05908C7.59415 6.94362 6.88489 7.65925 6.01376 7.65925H2.97602C2.10488 7.65925 1.39563 6.94362 1.39563 6.05908V2.99496C1.39563 2.10983 2.10451 1.3948 2.97602 1.3948ZM17.0255 -0.000488281H13.9868C12.3419 -0.000488281 11.0111 1.34196 11.0111 2.99503V6.05914C11.0111 7.71154 12.3422 9.05466 13.9868 9.05466H17.0255C18.6693 9.05466 20.0003 7.71135 20.0003 6.05914V2.99503C20.0003 1.34215 18.6696 -0.000488281 17.0255 -0.000488281ZM13.9868 1.3948H17.0255C17.8962 1.3948 18.605 2.10994 18.605 2.99496V6.05908C18.605 6.94352 17.8958 7.65925 17.0255 7.65925H13.9868C13.1157 7.65925 12.4064 6.94362 12.4064 6.05908V2.99496C12.4064 2.10983 13.1153 1.3948 13.9868 1.3948ZM2.97598 10.9443H6.01372C7.65877 10.9443 8.98946 12.287 8.98946 13.9408V17.004C8.98946 18.657 7.65857 19.9995 6.01372 19.9995H2.97598C1.33113 19.9995 0.000244141 18.657 0.000244141 17.004V13.9408C0.000244141 12.287 1.33094 10.9443 2.97598 10.9443ZM6.01376 12.3396H2.97602C2.10441 12.3396 1.39563 13.0548 1.39563 13.9408V17.0039C1.39563 17.889 2.10451 18.6041 2.97602 18.6041H6.01376C6.88526 18.6041 7.59415 17.889 7.59415 17.0039V13.9408C7.59415 13.0548 6.88537 12.3396 6.01376 12.3396ZM17.0255 10.9443H13.9868C12.3418 10.9443 11.0111 12.287 11.0111 13.9408V17.004C11.0111 18.657 12.3419 19.9995 13.9868 19.9995H17.0255C18.6696 19.9995 20.0003 18.6569 20.0003 17.004V13.9408C20.0003 12.2872 18.6698 10.9443 17.0255 10.9443ZM13.9868 12.3396H17.0255C17.8963 12.3396 18.605 13.0549 18.605 13.9408V17.0039C18.605 17.8889 17.8962 18.6041 17.0255 18.6041H13.9868C13.1153 18.6041 12.4064 17.889 12.4064 17.0039V13.9408C12.4064 13.0548 13.1152 12.3396 13.9868 12.3396Z" fill="#FF8345"/>
</svg>
